<?xml version="1.0" encoding="UTF-8"?>
<svg id="Capa_1" data-name="Capa 1" xmlns="http://www.w3.org/2000/svg" viewBox="0 0 430 430">
  <defs>
    <style>
      .cls-1 {
        fill: #455aa4;
        fill-rule: evenodd;
      }
    </style>
  </defs>
  <path class="cls-1" d="M125.34,178.68c-19.78-19.77-51.91-19.77-71.69,0-19.78,19.78-19.78,51.9,0,71.69,19.78,19.78,51.9,19.78,71.69,0,19.78-19.78,19.78-51.9,0-71.69"/>
  <path class="cls-1" d="M367.14,156.88c-24.26-24.26-59.94-30.13-89.78-17.71-35.34-9.09-57.68-29.4-66.7-61.19,6.49-20.51,1.66-43.85-14.59-60.1-23.22-23.22-60.94-23.22-84.16,0-23.23,23.22-23.23,60.94,0,84.16,15.61,15.61,37.75,20.68,57.66,15.3,35.17,9.47,56.78,30.41,65.28,62.43-10.49,22.12-10.55,47.9-.18,70.06-8.8,32.27-31.05,53.17-67.2,62.31-19.34-4.48-40.49.75-55.56,15.81-23.23,23.22-23.23,60.94,0,84.16,23.22,23.23,60.94,23.23,84.16,0,16.38-16.38,21.15-39.94,14.43-60.56,8.78-31.69,30.71-52.06,65.43-61.39,30.12,13.23,66.56,7.61,91.21-17.05,32.07-32.08,32.07-84.16,0-116.23"/>
</svg>