<?xml version="1.0" encoding="UTF-8"?>
<svg id="Capa_1" data-name="Capa 1" xmlns="http://www.w3.org/2000/svg" viewBox="0 0 1606.19 429.06">
  <defs>
    <style>
      .cls-1 {
        fill: #455aa4;
        fill-rule: evenodd;
      }

      .cls-2 {
        fill: #fff;
      }
    </style>
  </defs>
  <g>
    <g>
      <path class="cls-2" d="M873.66,87.03c0-.53.15-.97.44-1.3.3-.32.74-.48,1.34-.48h6.61c.46,0,.89.16,1.29.48.41.33.61.76.61,1.3v18.6c0,.33-.08.64-.24.93-.16.3-.46.59-.89.85-.03,0-.04,0-.04.02,0,.02-.01.02-.04.02-1.27.9-2.64,1.69-4.09,2.39-1.46.7-2.99,1.3-4.58,1.77-1.6.47-3.23.84-4.9,1.09-1.68.26-3.35.38-5.02.38-2.84,0-5.58-.36-8.23-1.09-2.65-.73-5.11-1.77-7.4-3.12-2.28-1.35-4.36-2.96-6.24-4.85-1.88-1.88-3.49-3.96-4.85-6.24-1.35-2.28-2.39-4.74-3.12-7.37-.73-2.63-1.09-5.39-1.09-8.25s.36-5.57,1.09-8.21c.73-2.63,1.77-5.09,3.12-7.39,1.35-2.3,2.97-4.39,4.85-6.29,1.88-1.89,3.96-3.51,6.26-4.86,2.29-1.35,4.76-2.39,7.4-3.14,2.63-.75,5.38-1.11,8.25-1.11,1.92,0,3.83.17,5.73.51,1.9.34,3.75.84,5.53,1.51.68.28,1.48.61,2.41,1.01.93.41,1.82.85,2.65,1.34.84.49,1.55.99,2.13,1.49.58.52.87,1.01.87,1.5,0,.21-.12.56-.36,1.03-.24.48-.55,1.01-.91,1.6-.36.6-.78,1.21-1.24,1.85-.46.63-.91,1.21-1.34,1.72-.43.52-.83.94-1.17,1.28-.36.34-.62.51-.81.51-.16,0-.36-.04-.59-.1-.23-.07-.47-.2-.71-.39-1.7-1.18-3.62-2.13-5.75-2.84-2.13-.7-4.31-1.05-6.53-1.05-2.89,0-5.53.54-7.94,1.62-2.4,1.08-4.47,2.54-6.2,4.37-1.73,1.84-3.08,3.97-4.05,6.38-.97,2.42-1.46,4.97-1.46,7.64s.52,5.34,1.56,7.76c1.04,2.42,2.44,4.53,4.21,6.32,1.77,1.8,3.85,3.22,6.22,4.26,2.37,1.04,4.9,1.56,7.57,1.56,1,0,1.99-.07,2.96-.22.97-.14,1.88-.34,2.73-.57.85-.22,1.61-.48,2.29-.76.68-.28,1.23-.56,1.66-.84v-12.64Z"/>
      <path class="cls-2" d="M942.62,53.93c0-1.27.59-1.91,1.78-1.91h24.8c2.72,0,5.28.52,7.66,1.54,2.37,1.03,4.45,2.42,6.22,4.18,1.77,1.76,3.16,3.82,4.17,6.2,1.01,2.38,1.52,4.91,1.52,7.58,0,1.86-.26,3.65-.77,5.34-.51,1.71-1.23,3.28-2.15,4.75-.92,1.46-2.01,2.77-3.28,3.95-1.27,1.17-2.68,2.17-4.21,2.98l10.54,20.79c.05.28.15.54.28.81.13.28.2.56.2.85,0,.81-.47,1.22-1.42,1.22h-9.4c-.97,0-1.62-.5-1.94-1.5l-9.81-19.45c-.43,0-.9,0-1.4.03-.5,0-1.19.02-2.07.02h-8.94v19.17c0,1.16-.62,1.74-1.86,1.74h-8.14c-.54,0-.97-.14-1.3-.43-.32-.28-.48-.72-.48-1.32v-56.53ZM976.78,71.57c0-1.16-.21-2.28-.64-3.37-.44-1.09-1.04-2.07-1.83-2.93-.78-.86-1.72-1.56-2.8-2.11-1.08-.53-2.25-.84-3.53-.92-.95-.03-1.87-.04-2.77-.06-.91,0-1.84-.02-2.82-.02h-7.98v18.8h12.22c.47,0,.98-.03,1.52-.08,1.27-.09,2.44-.38,3.5-.9,1.07-.51,1.98-1.19,2.74-2.04.76-.85,1.34-1.82,1.76-2.92.42-1.08.63-2.24.63-3.46Z"/>
      <path class="cls-2" d="M1056.37,87.76c0,2.28.32,4.31.97,6.13.65,1.8,1.56,3.34,2.73,4.6,1.17,1.25,2.58,2.21,4.21,2.88,1.64.66,3.45.99,5.45.99,2.11,0,4-.35,5.67-1.05,1.68-.7,3.09-1.7,4.24-2.98,1.15-1.29,2.03-2.83,2.63-4.62.61-1.8.92-3.78.92-5.94v-33.95c0-.49.17-.91.52-1.25.35-.36.79-.53,1.33-.53h7.84c.56,0,1.04.18,1.43.53.39.35.59.76.59,1.25v34.4c0,4.2-.68,7.84-2.02,10.96-1.35,3.12-3.17,5.73-5.47,7.81-2.29,2.08-4.97,3.63-8.01,4.66-3.05,1.02-6.28,1.54-9.68,1.54s-6.63-.54-9.68-1.64c-3.05-1.1-5.73-2.7-8.02-4.81-2.29-2.11-4.12-4.71-5.47-7.81-1.35-3.11-2.02-6.68-2.02-10.7v-34.4c0-.44.16-.84.47-1.22.31-.37.71-.57,1.2-.57h8.27c.4,0,.82.18,1.25.53.43.35.65.76.65,1.25v33.95Z"/>
      <path class="cls-2" d="M1152.69,53.93c0-1.27.6-1.91,1.82-1.91h23.02c2.72,0,5.24.53,7.53,1.6,2.3,1.07,4.28,2.5,5.94,4.28,1.66,1.79,2.95,3.83,3.87,6.14.92,2.3,1.38,4.72,1.38,7.23s-.45,4.83-1.36,7.11c-.91,2.28-2.18,4.31-3.81,6.08-1.64,1.77-3.59,3.18-5.86,4.25-2.27,1.08-4.76,1.6-7.46,1.6h-13.35v20.15c0,1.16-.6,1.74-1.82,1.74h-8.12c-1.18,0-1.77-.59-1.77-1.74v-56.53ZM1184.42,71.21c0-1.1-.21-2.2-.65-3.26-.43-1.08-1.03-2.02-1.79-2.84-.76-.83-1.66-1.49-2.72-2.01-1.05-.52-2.2-.77-3.45-.77h-11.41v17.79h11.41c1.22,0,2.35-.24,3.41-.73,1.05-.49,1.97-1.15,2.74-1.97.77-.83,1.37-1.77,1.8-2.84.44-1.07.65-2.19.65-3.35Z"/>
      <path class="cls-2" d="M1249.94,82.17c0-2.84.36-5.57,1.09-8.22s1.77-5.12,3.12-7.41c1.35-2.29,2.97-4.39,4.84-6.28,1.88-1.89,3.97-3.51,6.27-4.85,2.29-1.34,4.76-2.37,7.39-3.12,2.64-.75,5.39-1.11,8.25-1.11s5.57.36,8.21,1.11c2.63.75,5.09,1.78,7.4,3.12,2.29,1.33,4.38,2.95,6.28,4.85,1.89,1.88,3.5,3.98,4.85,6.28,1.33,2.29,2.37,4.77,3.12,7.41.74,2.65,1.11,5.41,1.11,8.27s-.37,5.6-1.11,8.22c-.75,2.62-1.79,5.08-3.12,7.38-1.34,2.29-2.95,4.38-4.85,6.26-1.89,1.88-3.98,3.49-6.28,4.82-2.3,1.34-4.77,2.37-7.4,3.1-2.63.73-5.39,1.09-8.25,1.09s-5.61-.36-8.24-1.09c-2.63-.73-5.1-1.77-7.4-3.12-2.29-1.35-4.38-2.96-6.26-4.85-1.88-1.88-3.49-3.96-4.82-6.24-1.33-2.28-2.37-4.74-3.1-7.37-.73-2.63-1.09-5.39-1.09-8.25ZM1261.65,82.09c0,2.73.49,5.28,1.48,7.66.99,2.37,2.34,4.45,4.05,6.2,1.72,1.76,3.74,3.15,6.08,4.17,2.34,1.03,4.86,1.55,7.59,1.55s5.23-.52,7.56-1.55c2.34-1.02,4.37-2.41,6.1-4.17,1.73-1.75,3.09-3.82,4.07-6.2.99-2.38,1.48-4.93,1.48-7.66s-.5-5.24-1.48-7.62c-.98-2.37-2.34-4.45-4.07-6.21-1.72-1.77-3.76-3.17-6.1-4.2-2.33-1.02-4.85-1.54-7.56-1.54s-5.25.52-7.59,1.54c-2.34,1.02-4.37,2.43-6.08,4.2-1.72,1.77-3.07,3.84-4.05,6.21-.99,2.38-1.48,4.92-1.48,7.62Z"/>
    </g>
    <g>
      <path class="cls-2" d="M621.35,68.3c21.09,8.69,39.49,20.6,55.15,35.6,15.65,15.04,28.03,32.67,37.09,52.92,9.06,20.26,13.6,41.77,13.6,64.54s-4.54,44.3-13.6,64.55c-9.06,20.23-21.45,37.9-37.09,52.89-15.67,15.04-34.06,26.9-55.15,35.6-21.11,8.69-43.53,13.06-67.28,13.06h-61.36l24.26-56.95h37.1c15.16,0,29.69-2.75,43.53-8.31,13.86-5.53,26.21-13.37,37.1-23.46,10.56-10.47,18.72-22.23,24.49-35.36,5.77-13.16,8.66-27.14,8.66-42.01s-2.9-28.47-8.66-41.77c-5.77-13.29-13.93-25.16-24.49-35.6-10.89-10.13-23.23-17.93-37.1-23.49-13.84-5.53-28.37-8.32-43.53-8.32h-84.1v275.28h-59.35V55.28h143.45c23.75,0,46.17,4.33,67.28,13.02"/>
      <path class="cls-2" d="M737.53,55.28h59.36v56.92h-59.36v-56.92ZM737.53,150.18h59.36v237.3h-59.36v-237.3Z"/>
      <path class="cls-2" d="M935.48,143.53c16.16,0,30.85,2.93,44.03,8.79,13.19,5.83,24.5,13.92,33.89,24.21,9.39,10.27,16.64,22.2,21.77,35.8,5.11,13.61,7.66,28.17,7.66,43.69v131.45h-59.36v-131.45c0-15.82-5.76-28.95-17.31-39.42-11.22-10.75-24.74-16.13-40.56-16.13s-29.86,5.39-41.07,16.13c-11.21,10.78-16.81,23.9-16.81,39.42v131.45h-59.37v-237.3h59.37v18.04c8.9-7.26,18.96-13.23,30.18-17.8,11.22-4.6,23.73-6.88,37.59-6.88"/>
      <path class="cls-2" d="M1254.01,387.47v-118.67c0-18.96-6.9-35.12-20.77-48.39-13.85-13.29-30.67-19.95-50.44-19.95l-.65.04c-9.4,0-18.41,1.74-27,5.19-8.59,3.47-16.27,8.31-23.01,14.67-6.56,6.47-11.62,13.87-15.19,22.19-3.59,8.29-5.38,16.95-5.38,26.06s1.79,17.97,5.38,26.18c3.57,8.19,8.63,15.56,15.19,22.06,6.75,6.31,14.42,11.18,23.01,14.63,8.59,3.48,17.61,5.18,27,5.18h23.02l23.18,50.81h-46.1c-17.84,0-34.69-3.27-50.54-9.83-15.84-6.55-29.67-15.48-41.43-26.8-11.76-11.29-21.05-24.59-27.85-39.83-5.77-12.89-9.98-25.4-9.98-40.68s2.88-35.22,9.14-50.4c6.24-15.17,15.02-28.47,26.21-39.89,11.21-11.35,24.48-20.29,39.84-26.8,15.32-6.48,32.05-9.72,50.2-9.72,16.16,0,30.5,2.39,43.03,7.13,12.55,4.74,23.58,10.78,33.15,18.04v-18.99h59.38v237.77h-59.38Z"/>
      <polygon class="cls-2" points="1501.31 275.01 1596.28 387.46 1520.09 387.46 1463.2 315.35 1406.33 387.46 1330.15 387.46 1425.12 275.01 1320.25 150.65 1396.43 150.65 1463.2 234.19 1530 150.65 1606.19 150.65 1501.31 275.01"/>
    </g>
  </g>
  <g>
    <path class="cls-1" d="M86.53,178.22c-19.78-19.77-51.91-19.77-71.69,0-19.78,19.78-19.78,51.9,0,71.69,19.78,19.78,51.9,19.78,71.69,0,19.78-19.78,19.78-51.9,0-71.69"/>
    <path class="cls-1" d="M328.32,156.41c-24.26-24.26-59.94-30.13-89.78-17.71-35.34-9.09-57.68-29.4-66.7-61.19,6.49-20.51,1.66-43.85-14.59-60.1-23.22-23.22-60.94-23.22-84.16,0-23.23,23.22-23.23,60.94,0,84.16,15.61,15.61,37.75,20.68,57.66,15.3,35.17,9.47,56.78,30.41,65.28,62.43-10.49,22.12-10.55,47.9-.18,70.06-8.8,32.27-31.05,53.17-67.2,62.31-19.34-4.48-40.49.75-55.56,15.81-23.23,23.22-23.23,60.94,0,84.16,23.22,23.23,60.94,23.23,84.16,0,16.38-16.38,21.15-39.94,14.43-60.56,8.78-31.69,30.71-52.06,65.43-61.39,30.12,13.23,66.56,7.61,91.21-17.05,32.07-32.08,32.07-84.16,0-116.23"/>
  </g>
</svg>